:FULLY-SPECIFIED
:FORCE-ALL-JOINTS-BE-3DOF
:DEGREES
136
root 7.8256 16.5441 -26.283 -10.6703 9.25285 5.3411
lfemur -5.34488 13.0667 -21.6247
ltibia 35.2661 0 0
lfoot -17.5421 -11.4854 0
ltoes 29.8357 0 0
rfemur -100.565 -26.0288 59.4894
rtibia 86.2047 0 0
rfoot 10.2331 20.5688 0
rtoes -29.0743 0 0
lowerback 17.1202 -3.09879 -8.93826
upperback 5.68113 -5.60113 -1.83258
thorax -2.77987 -2.81455 4.11704
lowerneck -12.6058 -0.605079 -0.231667
upperneck 0.670982 -0.915895 3.14445
head 2.4264 -0.346494 1.00366
lclavicle 2.0363e-14 -1.60519e-14 0
lhumerus -41.3369 -21.7373 90.2274
lradius 53.376 0 0
lwrist 17.4628 0 0
lhand 9.25473 6.58353 0
lfingers 7.12502 0 0
lthumb 34.4163 33.249 0
rclavicle 2.0363e-14 -1.60519e-14 0
rhumerus -43.9025 -25.3795 -57.1475
rradius 80.2624 0 0
rwrist -36.1414 0 0
rhand -17.6499 -26.2841 0
rfingers 7.12502 0 0
rthumb 8.57806 -55.3387 0
137
root 7.78959 16.5229 -26.2776 -10.4624 10.138 5.21773
lfemur -5.89256 13.4732 -21.3586
ltibia 35.7717 0 0
lfoot -17.659 -12.4943 0
ltoes 30.4418 0 0
rfemur -101.344 -25.8643 58.7808
rtibia 90.4262 0 0
rfoot 16.6072 21.1505 0
rtoes -25.0808 0 0
lowerback 17.1402 -3.42103 -8.91403
upperback 5.63567 -6.02696 -1.93945
thorax -2.79766 -3.02045 4.06411
lowerneck -12.5292 -0.682837 -0.421969
upperneck 0.542236 -0.99833 3.39097
head 2.37452 -0.381822 1.11181
lclavicle 3.14328e-14 -1.69299e-14 0
lhumerus -40.9374 -22.6983 90.2085
lradius 52.9931 0 0
lwrist 17.522 0 0
lhand 9.98605 6.909 0
lfingers 7.12502 0 0
lthumb 35.1105 33.4167 0
rclavicle 3.14328e-14 -1.69299e-14 0
rhumerus -44.6524 -26.2221 -57.7047
rradius 81.5596 0 0
rwrist -36.7784 0 0
rhand -23.5389 -27.9267 0
rfingers 7.12502 0 0
rthumb 2.90188 -57.2334 0
138
root 7.75357 16.5017 -26.2723 -10.2545 11.0231 5.09435
lfemur -6.44023 13.8797 -21.0925
ltibia 36.2773 0 0
lfoot -17.7759 -13.5032 0
ltoes 31.0479 0 0
rfemur -102.124 -25.6998 58.0722
rtibia 94.6477 0 0
rfoot 22.9814 21.7323 0
rtoes -21.0872 0 0
lowerback 17.1602 -3.74326 -8.88981
upperback 5.59021 -6.4528 -2.04632
thorax -2.81544 -3.22634 4.01117
lowerneck -12.4527 -0.760595 -0.612272
upperneck 0.41349 -1.08076 3.63748
head 2.32265 -0.41715 1.21996
lclavicle 4.25027e-14 -1.78078e-14 0
lhumerus -40.5379 -23.6593 90.1896
lradius 52.6103 0 0
lwrist 17.5812 0 0
lhand 10.7174 7.23446 0
lfingers 7.12502 0 0
lthumb 35.8047 33.5845 0
rclavicle 4.25027e-14 -1.78078e-14 0
rhumerus -45.4022 -27.0648 -58.262
rradius 82.8567 0 0
rwrist -37.4154 0 0
rhand -29.4278 -29.5693 0
rfingers 7.12502 0 0
rthumb -2.7743 -59.1281 0
139
root 7.71756 16.4805 -26.2669 -10.0465 11.9082 4.97098
lfemur -6.98791 14.2862 -20.8264
ltibia 36.7829 0 0
lfoot -17.8927 -14.5121 0
ltoes 31.654 0 0
rfemur -102.903 -25.5352 57.3636
rtibia 98.8692 0 0
rfoot 29.3556 22.314 0
rtoes -17.0937 0 0
lowerback 17.1802 -4.06549 -8.86558
upperback 5.54475 -6.87863 -2.15319
thorax -2.83323 -3.43224 3.95824
lowerneck -12.3761 -0.838353 -0.802575
upperneck 0.284744 -1.1632 3.884
head 2.27077 -0.452478 1.32811
lclavicle 5.35725e-14 -1.86858e-14 0
lhumerus -40.1384 -24.6203 90.1707
lradius 52.2274 0 0
lwrist 17.6404 0 0
lhand 11.4487 7.55993 0
lfingers 7.12502 0 0
lthumb 36.499 33.7523 0
rclavicle 5.35725e-14 -1.86858e-14 0
rhumerus -46.1521 -27.9074 -58.8192
rradius 84.1539 0 0
rwrist -38.0524 0 0
rhand -35.3168 -31.2119 0
rfingers 7.12502 0 0
rthumb -8.45048 -61.0228 0
140
root 7.66544 16.4717 -26.2616 -9.48235 12.8962 4.68677
lfemur -7.94207 14.7636 -20.5021
ltibia 37.1136 0 0
lfoot -18.2122 -13.89 0
ltoes 29.2113 0 0
rfemur -101.811 -26.1327 55.3303
rtibia 101.638 0 0
rfoot 29.3013 22.5262 0
rtoes -17.0033 0 0
lowerback 16.8592 -4.255 -8.75909
upperback 5.35426 -7.08923 -2.12451
thorax -2.85095 -3.53 3.94095
lowerneck -12.2609 -1.05419 -0.853394
upperneck 0.238398 -1.44839 4.06683
head 2.24696 -0.590493 1.38062
lclavicle 5.8012e-14 -1.13308e-14 0
lhumerus -39.4586 -25.5693 90.4239
lradius 51.4334 0 0
lwrist 16.48 0 0
lhand 12.897 8.11116 0
lfingers 7.12502 0 0
lthumb 37.8599 33.8766 0
rclavicle 5.8012e-14 -1.13308e-14 0
rhumerus -47.1098 -27.0938 -60.0302
rradius 84.9415 0 0
rwrist -34.4665 0 0
rhand -36.9792 -36.7118 0
rfingers 7.12502 0 0
rthumb -10.0527 -95.2868 0
141
root 7.61331 16.4629 -26.2564 -8.9182 13.8843 4.40257
lfemur -8.89624 15.241 -20.1777
ltibia 37.4442 0 0
lfoot -18.5316 -13.2679 0
ltoes 26.7686 0 0
rfemur -100.718 -26.7301 53.297
rtibia 104.407 0 0
rfoot 29.247 22.7383 0
rtoes -16.913 0 0
lowerback 16.5383 -4.4445 -8.65259
upperback 5.16376 -7.29984 -2.09583
thorax -2.86868 -3.62777 3.92365
lowerneck -12.1458 -1.27002 -0.904213
upperneck 0.192053 -1.73358 4.24965
head 2.22316 -0.728509 1.43313
lclavicle 6.24515e-14 -3.97573e-15 0
lhumerus -38.7789 -26.5183 90.6772
lradius 50.6395 0 0
lwrist 15.3197 0 0
lhand 14.3454 8.66239 0
lfingers 7.12502 0 0
lthumb 39.2207 34.0008 0
rclavicle 6.24515e-14 -3.97573e-15 0
rhumerus -48.0675 -26.2801 -61.2411
rradius 85.7292 0 0
rwrist -30.8807 0 0
rhand -38.6415 -42.2118 0
rfingers 7.12502 0 0
rthumb -11.6549 -129.551 0
